<svg xmlns="http://www.w3.org/2000/svg" width="26.12" height="47.69" viewBox="0 0 26.12 47.69">
  <defs>
    <style>
      .cls-1 {
        fill: #fff;
        fill-rule: evenodd;
      }
    </style>
  </defs>
  <path class="cls-1" d="M2263.99,1546.87v19.11a7.011,7.011,0,1,0,14.02,0v-19.11A7.011,7.011,0,1,0,2263.99,1546.87Zm-6.05,11.5v7.61a13.275,13.275,0,0,0,11.31,13.19l0.32,0.04v5.3h-5.04v2.91h13.06v-2.91h-5.16v-5.3l0.32-.04a13.275,13.275,0,0,0,11.31-13.19v-8.02h-2.85v8.02a10.212,10.212,0,1,1-20.42,0v-7.61h-2.85Z" transform="translate(-2257.94 -1539.72)"/>
</svg>
