<svg xmlns="http://www.w3.org/2000/svg" width="45" height="29" viewBox="0 0 45 29">
  <defs>
    <style>
      .cls-1 {
        fill: #fff;
        fill-rule: evenodd;
      }
    </style>
  </defs>
  <path class="cls-1" d="M1689.85,440a3.329,3.329,0,1,1-3.31,3.329A3.32,3.32,0,0,1,1689.85,440Zm-11.09,0a3.329,3.329,0,1,1-3.32,3.329A3.327,3.327,0,0,1,1678.76,440Zm28.24,7.007a1.58,1.58,0,0,0-1.56-1.413l-0.02,0v0h-0.16l-0.01,0c-0.01,0-.01,0-0.02,0a1.545,1.545,0,0,0-1.13.484,0.038,0.038,0,0,1-.01,0,1.208,1.208,0,0,0-.11.141c-0.04.057-.08,0.117-0.12,0.179l-0.03.056c-0.02.055-.05,0.11-0.07,0.168a0.953,0.953,0,0,0-.05.17l-0.03.115c0,0.037-.02.069-0.02,0.108a19.154,19.154,0,0,1-4.52,11.005,1.715,1.715,0,0,0-.29,1.8l2.2,5.227-8.97-1.568a1.662,1.662,0,0,0-.93.058,18.746,18.746,0,0,1-6.65,1.22,18.987,18.987,0,0,1-18.93-17.591c0-.015-0.01-0.02-0.01-0.033a1.723,1.723,0,0,0-1.7-1.536c-0.02,0-.03,0-0.05,0a0.547,0.547,0,0,0-.07-0.007v0l-0.03,0a1.713,1.713,0,0,0-1.71,1.723v0.053c0,0.019-.01.033-0.01,0.055a22.5,22.5,0,0,0,29.91,19.542L1703.54,469h0.29a1.7,1.7,0,0,0,1.56-2.381l-3.07-7.2a22.664,22.664,0,0,0,3.19-5.576,22.281,22.281,0,0,0,1.47-6.351,0.068,0.068,0,0,1,.01-0.043C1706.99,447.361,1707.01,447.041,1707,447.007Z" transform="translate(-1662 -440)"/>
</svg>
