<svg xmlns="http://www.w3.org/2000/svg" width="42" height="42" viewBox="0 0 42 42">
  <defs>
    <style>
      .cls-1 {
        fill: #fff;
        fill-rule: evenodd;
      }
    </style>
  </defs>
  <path class="cls-1" d="M68,147.175a7.882,7.882,0,1,1,7.88-7.882A7.891,7.891,0,0,1,68,147.175Zm0-13.621a5.74,5.74,0,1,0,5.74,5.74A5.746,5.746,0,0,0,68,133.554ZM68,123a21,21,0,1,0,21,21A21.023,21.023,0,0,0,68,123ZM56.181,158.678a1.04,1.04,0,0,0,.2-0.336,12.346,12.346,0,0,1,23.236,0,1.1,1.1,0,0,0,.2.339A18.8,18.8,0,0,1,56.181,158.678Zm25.285-1.5a14.486,14.486,0,0,0-26.934,0A18.859,18.859,0,1,1,81.466,157.182Z" transform="translate(-47 -123)"/>
</svg>
